<svg width="116" height="45" viewBox="0 0 116 45" fill="none" xmlns="http://www.w3.org/2000/svg">
<g clip-path="url(#clip0_410_1589)">
<path d="M52.7197 28.9206C52.4354 28.9206 52.2013 28.8195 52.009 28.6173C51.8166 28.415 51.7163 28.1706 51.7163 27.8841V13.1032C51.7163 12.8167 51.8166 12.5807 52.009 12.3869C52.2013 12.1931 52.4354 12.092 52.7197 12.092C53.0124 12.092 53.2632 12.1931 53.4555 12.3869C53.6478 12.5807 53.7482 12.8167 53.7482 13.1032V13.6847C54.2666 13.1453 54.8352 12.724 55.4623 12.4291C56.081 12.1341 56.7834 11.9824 57.5527 11.9824C58.4557 11.9824 59.317 12.2184 60.128 12.6819C60.9391 13.1453 61.6164 13.8195 62.1348 14.7043C62.6616 15.5892 62.9208 16.6678 62.9208 17.9319C62.9208 19.1959 62.6616 20.283 62.1348 21.1594C61.608 22.0442 60.9391 22.7184 60.128 23.1819C59.317 23.6453 58.4557 23.8813 57.5527 23.8813C56.7834 23.8813 56.0894 23.7296 55.4623 23.4347C54.8435 23.1397 54.2666 22.7184 53.7482 22.179V27.901C53.7482 28.1875 53.6478 28.4319 53.4555 28.6341C53.2632 28.8364 53.0207 28.9375 52.7197 28.9375V28.9206ZM57.2517 21.9684C58.3052 21.9684 59.1748 21.6229 59.8605 20.9403C60.5461 20.2577 60.8973 19.2465 60.8973 17.9319C60.8973 16.6173 60.5545 15.5976 59.8605 14.915C59.1748 14.2324 58.3052 13.8953 57.2517 13.8953C56.5242 13.8953 55.8636 14.0555 55.27 14.3757C54.6763 14.6959 54.1662 15.1004 53.7398 15.5723V20.283C54.1662 20.7633 54.6763 21.1594 55.27 21.4796C55.8636 21.7998 56.5242 21.9599 57.2517 21.9599V21.9684Z" fill="#4D4D4D"/>
<path d="M65.914 23.7638C65.6297 23.7638 65.3956 23.6627 65.2033 23.4689C65.011 23.2751 64.9106 23.0391 64.9106 22.7526V8.19081C64.9106 7.89587 65.011 7.64306 65.2033 7.44924C65.3956 7.25542 65.6297 7.1543 65.914 7.1543C66.1983 7.1543 66.4325 7.25542 66.6331 7.44924C66.8338 7.64306 66.9341 7.88744 66.9341 8.19081V14.0476C67.4108 13.5251 67.971 13.0532 68.6148 12.6234C69.2587 12.1936 70.0781 11.9829 71.0731 11.9829C71.9176 11.9829 72.6367 12.1852 73.2304 12.5813C73.8241 12.9773 74.2756 13.5082 74.585 14.174C74.8944 14.8397 75.0532 15.5728 75.0532 16.3818V22.7526C75.0532 23.0391 74.9529 23.2751 74.7522 23.4689C74.5515 23.6627 74.309 23.7638 74.0331 23.7638C73.7572 23.7638 73.5147 23.6627 73.3224 23.4689C73.1301 23.2751 73.0297 23.0391 73.0297 22.7526V16.6094C73.0297 15.7582 72.8374 15.0841 72.4611 14.6037C72.0849 14.115 71.4578 13.8706 70.5798 13.8706C69.7771 13.8706 69.0831 14.0897 68.4894 14.5195C67.8957 14.9577 67.3773 15.4549 66.9341 16.0195V22.7526C66.9341 23.0391 66.8338 23.2751 66.6331 23.4689C66.4325 23.6627 66.19 23.7638 65.914 23.7638Z" fill="#4D4D4D"/>
<path d="M83.4403 23.8735C82.3031 23.8735 81.2998 23.6207 80.4385 23.1235C79.5773 22.6263 78.9167 21.9269 78.4485 21.0336C77.9802 20.1403 77.7461 19.1038 77.7461 17.924C77.7461 16.7443 77.9802 15.7078 78.4485 14.8145C78.9167 13.9212 79.5773 13.2302 80.4385 12.7246C81.2998 12.219 82.2948 11.9746 83.4403 11.9746C84.5859 11.9746 85.5809 12.2274 86.4254 12.7246C87.2699 13.2218 87.9388 13.9212 88.4154 14.8145C88.8921 15.7078 89.1262 16.7443 89.1262 17.924C89.1262 19.1038 88.8921 20.1403 88.4154 21.0336C87.9388 21.9269 87.2783 22.6179 86.4254 23.1235C85.5725 23.6291 84.5775 23.8735 83.4403 23.8735ZM83.4403 22.0111C84.0005 22.0111 84.5691 21.8763 85.1294 21.6066C85.6896 21.337 86.1662 20.8988 86.5425 20.292C86.9187 19.6853 87.111 18.8931 87.111 17.8988C87.111 16.9044 86.9187 16.1207 86.5425 15.5224C86.1662 14.924 85.6979 14.4943 85.1294 14.233C84.5691 13.9718 84.0005 13.837 83.4403 13.837C82.8801 13.837 82.3115 13.9718 81.7429 14.233C81.1743 14.4943 80.7061 14.924 80.3298 15.5224C79.9619 16.1207 79.778 16.9128 79.778 17.8988C79.778 18.8847 79.9619 19.6853 80.3298 20.292C80.6977 20.8988 81.1743 21.337 81.7429 21.6066C82.3115 21.8763 82.8801 22.0111 83.4403 22.0111Z" fill="#4D4D4D"/>
<path d="M92.9555 23.7633C92.6712 23.7633 92.4371 23.6622 92.2448 23.4684C92.0525 23.2746 91.9521 23.0386 91.9521 22.7521V13.1285C91.9521 12.8335 92.0525 12.5807 92.2448 12.3869C92.4371 12.1931 92.6712 12.092 92.9555 12.092C93.2398 12.092 93.474 12.1931 93.6746 12.3869C93.8753 12.5807 93.9756 12.8251 93.9756 13.1285V14.047C94.4523 13.5246 95.0125 13.0526 95.6563 12.6229C96.3002 12.1931 97.1196 11.9824 98.1146 11.9824C98.9591 11.9824 99.6782 12.1847 100.272 12.5807C100.866 12.9768 101.317 13.5077 101.626 14.1734C101.936 14.8392 102.095 15.5723 102.095 16.3813V22.7521C102.095 23.0386 101.994 23.2746 101.794 23.4684C101.593 23.6622 101.351 23.7633 101.075 23.7633C100.799 23.7633 100.556 23.6622 100.364 23.4684C100.172 23.2746 100.071 23.0386 100.071 22.7521V16.6088C100.071 15.7577 99.8789 15.0835 99.5026 14.6032C99.1264 14.1144 98.4993 13.8701 97.6213 13.8701C96.8186 13.8701 96.1246 14.0892 95.5309 14.5189C94.9372 14.9571 94.4188 15.4543 93.9756 16.0189V22.7521C93.9756 23.0386 93.8753 23.2746 93.6746 23.4684C93.474 23.6622 93.2315 23.7633 92.9555 23.7633Z" fill="#4D4D4D"/>
<path d="M110.774 29.0385C109.871 29.0385 108.984 28.9205 108.107 28.6761C107.229 28.4402 106.535 28.1705 106.016 27.8671C105.916 27.7913 105.824 27.6986 105.74 27.5722C105.657 27.4542 105.615 27.2857 105.615 27.075C105.615 26.8475 105.698 26.6368 105.874 26.443C106.05 26.2492 106.259 26.148 106.509 26.148C106.585 26.148 106.652 26.148 106.719 26.1733C106.785 26.1902 106.852 26.207 106.911 26.2407C107.387 26.4767 107.923 26.6789 108.533 26.8475C109.143 27.0076 109.821 27.0919 110.573 27.0919C112.839 27.0919 113.976 25.87 113.976 23.4346V21.9346C113.516 22.4318 112.973 22.8362 112.354 23.1565C111.735 23.4767 111.008 23.6368 110.18 23.6368C109.561 23.6368 108.934 23.5188 108.299 23.2744C107.663 23.0301 107.095 22.6761 106.568 22.1958C106.041 21.7155 105.615 21.1087 105.289 20.3756C104.963 19.6424 104.804 18.7829 104.804 17.7969C104.804 16.811 104.963 15.9514 105.289 15.2183C105.615 14.4851 106.041 13.8784 106.568 13.398C107.095 12.9177 107.672 12.5638 108.299 12.3194C108.926 12.0834 109.553 11.957 110.18 11.957C111.008 11.957 111.735 12.1171 112.354 12.4374C112.973 12.7576 113.516 13.1705 113.976 13.6593V13.0947C113.976 12.8082 114.077 12.5638 114.269 12.3615C114.461 12.1593 114.695 12.0582 114.98 12.0582C115.264 12.0582 115.498 12.1593 115.699 12.3615C115.9 12.5638 116 12.8082 116 13.0947V23.1228C116 25.0104 115.548 26.4598 114.645 27.4795C113.742 28.4992 112.455 29.0048 110.782 29.0048L110.774 29.0385ZM110.598 21.7913C111.368 21.7913 112.02 21.6228 112.555 21.2773C113.09 20.9318 113.558 20.5525 113.976 20.1312V15.5132C113.558 15.0834 113.09 14.6958 112.555 14.3587C112.02 14.0216 111.368 13.8531 110.598 13.8531C109.904 13.8531 109.269 13.9964 108.683 14.2829C108.107 14.5694 107.647 15.0076 107.321 15.5975C106.986 16.1874 106.819 16.9289 106.819 17.8306C106.819 18.7323 106.986 19.4739 107.321 20.0638C107.655 20.6537 108.107 21.0919 108.683 21.3784C109.26 21.6649 109.896 21.8082 110.598 21.8082V21.7913Z" fill="#4D4D4D"/>
<path d="M52.7113 37.6935C52.4353 37.6935 52.2012 37.5924 52.0089 37.3986C51.8166 37.2048 51.7246 36.9688 51.7246 36.6823V22.1205C51.7246 21.8256 51.8166 21.5727 52.0089 21.3789C52.2012 21.1851 52.7113 21.084 52.7113 21.084C52.7113 21.084 53.2297 21.1851 53.4304 21.3789C53.631 21.5727 53.3969 22.0615 53.3969 22.3649L53.723 27.9772C54.1913 27.4548 54.7431 26.9829 55.387 26.5531C56.0225 26.1233 56.8335 25.9126 57.8202 25.9126C58.6563 25.9126 59.3671 26.1149 59.9524 26.5109C60.5377 26.907 60.9892 27.4379 61.2986 28.1036C61.608 28.7694 61.7585 29.5025 61.7585 30.3115V36.6823C61.7585 36.9688 61.6581 37.2048 61.4575 37.3986C61.2568 37.5924 61.0227 37.6935 60.7384 37.6935C60.4541 37.6935 60.2283 37.5924 60.036 37.3986C59.8437 37.2048 59.7517 36.9688 59.7517 36.6823V30.539C59.7517 29.6879 59.5678 29.0138 59.1915 28.5334C58.8152 28.0447 58.1965 27.8003 57.3352 27.8003C56.5409 27.8003 55.8552 28.0194 55.2699 28.4492C54.6846 28.8874 54.1662 29.3845 53.7314 29.9492V36.6823C53.7314 36.9688 53.631 37.2048 53.4304 37.3986C53.2297 37.5924 52.9956 37.6935 52.7113 37.6935Z" fill="#4D4D4D"/>
<path d="M70.0028 38.645C68.8573 38.645 67.8623 38.3922 67.001 37.895C66.1398 37.3978 65.4792 36.6983 65.011 35.8051C64.5427 34.9118 64.3086 33.8753 64.3086 32.6955C64.3086 31.5158 64.5427 30.4792 65.011 29.586C65.4792 28.6927 66.1398 28.0017 67.001 27.4961C67.8623 26.9905 68.8656 26.7461 70.0028 26.7461C71.14 26.7461 72.1434 26.9989 72.9963 27.4961C73.8491 27.9933 74.5097 28.6927 74.9863 29.586C75.4629 30.4792 75.697 31.5158 75.697 32.6955C75.697 33.8753 75.4629 34.9118 74.9863 35.8051C74.5097 36.6983 73.8491 37.3894 72.9963 37.895C72.1434 38.4006 71.1484 38.645 70.0028 38.645ZM70.0028 36.7826C70.563 36.7826 71.1316 36.6478 71.6919 36.3781C72.2521 36.1085 72.7287 35.6703 73.105 35.0635C73.4812 34.4568 73.6735 33.6646 73.6735 32.6703C73.6735 31.6759 73.4812 30.8922 73.105 30.2938C72.7287 29.6955 72.2521 29.2658 71.6919 29.0045C71.1316 28.7433 70.563 28.6085 70.0028 28.6085C69.4426 28.6085 68.874 28.7433 68.2971 29.0045C67.7285 29.2658 67.2519 29.6955 66.884 30.2938C66.516 30.8922 66.3237 31.6843 66.3237 32.6703C66.3237 33.6562 66.5077 34.4568 66.884 35.0635C67.2519 35.6703 67.7285 36.1085 68.2971 36.3781C68.8656 36.6478 69.4342 36.7826 70.0028 36.7826Z" fill="#4D4D4D"/>
<path d="M79.5268 43.6941C79.2425 43.6941 79.0084 43.5929 78.8161 43.3907C78.6238 43.1884 78.5234 42.9441 78.5234 42.6575V27.8766C78.5234 27.5901 78.6238 27.3542 78.8161 27.1604C79.0084 26.9665 79.2425 26.8654 79.5268 26.8654C79.8195 26.8654 80.0703 26.9665 80.2626 27.1604C80.455 27.3542 80.5553 27.5901 80.5553 27.8766V28.4581C81.0737 27.9188 81.6423 27.4974 82.2694 27.2025C82.8965 26.9075 83.5905 26.7559 84.3598 26.7559C85.2629 26.7559 86.1241 26.9918 86.9435 27.4553C87.763 27.9188 88.4319 28.5929 88.9587 29.4778C89.4854 30.3626 89.753 31.4413 89.753 32.7053C89.753 33.9693 89.4854 35.0564 88.9587 35.9328C88.4319 36.8177 87.763 37.4918 86.9435 37.9553C86.1241 38.4188 85.2629 38.6547 84.3598 38.6547C83.5905 38.6547 82.8882 38.503 82.2694 38.2081C81.6423 37.9132 81.0737 37.4918 80.5553 36.9525V42.6744C80.5553 42.9609 80.455 43.2053 80.2626 43.4075C80.0703 43.6098 79.8278 43.7109 79.5268 43.7109V43.6941ZM84.0672 36.7418C85.1207 36.7418 85.9903 36.3963 86.6843 35.7137C87.3783 35.0311 87.7212 34.0199 87.7212 32.7053C87.7212 31.3907 87.3783 30.371 86.6843 29.6884C85.9903 29.0059 85.1207 28.6688 84.0672 28.6688C83.3397 28.6688 82.6791 28.8289 82.0855 29.1491C81.4918 29.4693 80.9817 29.8738 80.5469 30.3457V35.0564C80.9734 35.5368 81.4918 35.9328 82.0855 36.253C82.6791 36.5733 83.3397 36.7334 84.0672 36.7334V36.7418Z" fill="#4D4D4D"/>
<path d="M0 9.28588V39.7662C0 42.6567 2.32452 44.9994 5.19253 44.9994H37.6856C40.5536 44.9994 42.8781 42.6567 42.8781 39.7662V9.28588C42.8781 6.39543 40.5536 4.05273 37.6856 4.05273H5.19253C2.32452 4.06116 0 6.40386 0 9.28588Z" fill="#F2F7F9"/>
<path d="M42.8698 13.8886V7.55151C42.8698 4.66106 40.5452 2.31836 37.6772 2.31836H5.19253C2.32452 2.31836 0 4.66106 0 7.55151V13.8886H42.8698Z" fill="#388697"/>
<path d="M42.8698 15.0668V9.28588C42.8698 6.39543 40.5452 4.05273 37.6772 4.05273H5.19253C2.32452 4.06116 0 6.40386 0 9.28588V15.0668H42.8698Z" fill="#6CCED8"/>
<path d="M30.0513 8.69584C30.0513 9.70708 30.8623 10.5245 31.8657 10.5245C32.8691 10.5245 33.6802 9.70708 33.6802 8.69584C33.6802 7.6846 32.8691 6.86719 31.8657 6.86719C30.8623 6.86719 30.0513 7.6846 30.0513 8.69584Z" fill="#388697"/>
<path d="M30.896 0.977528V8.58708C30.896 9.1264 31.3308 9.56461 31.8659 9.56461C32.4011 9.56461 32.8359 9.1264 32.8359 8.58708V0.977528C32.8275 0.438202 32.4011 0 31.8659 0C31.3308 0 30.896 0.438202 30.896 0.977528Z" fill="#4D4D4D"/>
<path d="M18.9224 8.69584C18.9224 9.70708 19.7334 10.5245 20.7368 10.5245C21.7402 10.5245 22.5513 9.70708 22.5513 8.69584C22.5513 7.6846 21.7402 6.86719 20.7368 6.86719C19.7334 6.86719 18.9224 7.6846 18.9224 8.69584Z" fill="#388697"/>
<path d="M19.7583 0.977528V8.58708C19.7583 9.1264 20.1931 9.56461 20.7282 9.56461C21.2634 9.56461 21.6982 9.1264 21.6982 8.58708V0.977528C21.6982 0.438202 21.2634 0 20.7282 0C20.1931 0 19.7583 0.438202 19.7583 0.977528Z" fill="#4D4D4D"/>
<path d="M7.78467 8.69584C7.78467 9.70708 8.59574 10.5245 9.59913 10.5245C10.6025 10.5245 11.4136 9.70708 11.4136 8.69584C11.4136 7.6846 10.6025 6.86719 9.59913 6.86719C8.59574 6.86719 7.78467 7.6846 7.78467 8.69584Z" fill="#388697"/>
<path d="M8.62891 0.977528V8.58708C8.62891 9.1264 9.06371 9.56461 9.59885 9.56461C10.134 9.56461 10.5688 9.1264 10.5688 8.58708V0.977528C10.5688 0.438202 10.134 0 9.59885 0C9.06371 0 8.62891 0.438202 8.62891 0.977528Z" fill="#4D4D4D"/>
<path d="M33.1706 23.7898H27.978V18.5566H33.1706V23.7898Z" fill="#E56353"/>
<path d="M23.4709 23.7898H18.2783V18.5566H23.4709V23.7898Z" fill="#E56353"/>
<path d="M13.7799 23.7898H8.5874V18.5566H13.7799V23.7898Z" fill="#E56353"/>
<path d="M23.4709 31.989H18.2783V26.7559H23.4709V31.989Z" fill="#E56353"/>
<path d="M13.7799 31.989H8.5874V26.7559H13.7799V31.989Z" fill="#E56353"/>
<path d="M33.1706 40.198H27.978V34.9648H33.1706V40.198Z" fill="#E56353"/>
<path d="M23.4709 40.198H18.2783V34.9648H23.4709V40.198Z" fill="#E56353"/>
<path d="M38.3821 23.5574L38.1279 23.3012C37.9221 23.0939 37.5886 23.0939 37.3829 23.3012L29.803 30.9403C29.5973 31.1476 29.5973 31.4838 29.803 31.6911L30.0573 31.9474C30.263 32.1547 30.5965 32.1547 30.8022 31.9473L38.3821 24.3082C38.5878 24.1009 38.5878 23.7647 38.3821 23.5574Z" fill="#4D4D4D"/>
<path d="M26.5695 27.2377L26.3212 27.488C26.1187 27.692 26.1187 28.0228 26.3212 28.2269L29.9692 31.9034C30.1716 32.1075 30.4999 32.1075 30.7023 31.9034L30.9507 31.6532C31.1531 31.4491 31.1531 31.1183 30.9507 30.9143L27.3026 27.2377C27.1002 27.0337 26.7719 27.0337 26.5695 27.2377Z" fill="#4D4D4D"/>
<path d="M93.2732 37.9128C93.0976 37.9128 92.9471 37.8538 92.8217 37.7274C92.6962 37.601 92.6377 37.4493 92.6377 37.2723V37.2049C92.6377 37.0279 92.6962 36.8763 92.8217 36.7498C92.9471 36.6234 93.0976 36.5645 93.2732 36.5645H93.3902C93.5658 36.5645 93.7163 36.6234 93.8418 36.7498C93.9672 36.8763 94.0257 37.0279 94.0257 37.2049V37.2723C94.0257 37.4493 93.9672 37.601 93.8418 37.7274C93.7163 37.8538 93.5658 37.9128 93.3902 37.9128H93.2732Z" fill="#4D4D4D"/>
<path d="M97.2951 37.9398C97.153 37.9398 97.0276 37.8976 96.9189 37.8134C96.8102 37.7291 96.7266 37.628 96.6764 37.5184L94.7031 32.774C94.6613 32.6814 94.6445 32.6055 94.6445 32.5381C94.6445 32.3948 94.6947 32.2684 94.795 32.1673C94.8954 32.0662 95.0124 32.0156 95.1546 32.0156C95.2633 32.0156 95.3553 32.0409 95.4472 32.0999C95.5309 32.1589 95.5894 32.2263 95.6228 32.3106L97.3537 36.7347L99.0845 32.3106C99.118 32.2263 99.1849 32.1589 99.2685 32.0999C99.3521 32.0409 99.4441 32.0156 99.5444 32.0156C99.6866 32.0156 99.812 32.0662 99.904 32.1673C100.004 32.2684 100.054 32.3948 100.054 32.5381C100.054 32.6055 100.038 32.6898 99.9959 32.774L98.0226 37.5184C97.9724 37.6364 97.8888 37.7291 97.7801 37.8134C97.6714 37.8976 97.546 37.9398 97.4038 37.9398H97.2868H97.2951Z" fill="#4D4D4D"/>
<path d="M101.76 37.9388C101.618 37.9388 101.492 37.8883 101.401 37.7872C101.3 37.686 101.25 37.5681 101.25 37.4248V32.5287C101.25 32.377 101.3 32.2506 101.401 32.1495C101.501 32.0484 101.618 31.9978 101.76 31.9978C101.902 31.9978 102.028 32.0484 102.128 32.1495C102.228 32.2506 102.278 32.377 102.278 32.5287V33.0006C102.521 32.731 102.805 32.495 103.131 32.2759C103.457 32.0568 103.876 31.9473 104.386 31.9473C104.812 31.9473 105.18 32.0484 105.481 32.2506C105.782 32.4529 106.016 32.7225 106.175 33.0596C106.334 33.3967 106.409 33.7759 106.409 34.1804V37.4248C106.409 37.5681 106.359 37.6945 106.259 37.7872C106.158 37.8883 106.033 37.9388 105.891 37.9388C105.749 37.9388 105.623 37.8883 105.531 37.7872C105.439 37.686 105.381 37.5681 105.381 37.4248V34.2984C105.381 33.8686 105.28 33.5231 105.088 33.2787C104.896 33.0343 104.578 32.9079 104.135 32.9079C103.725 32.9079 103.374 33.0175 103.073 33.2366C102.772 33.4557 102.504 33.7085 102.278 34.0034V37.4248C102.278 37.5681 102.228 37.6945 102.128 37.7872C102.028 37.8883 101.902 37.9388 101.76 37.9388Z" fill="#4D4D4D"/>
</g>
<defs>
<clipPath id="clip0_410_1589">
<rect width="116" height="45" fill="white"/>
</clipPath>
</defs>
</svg>
