<svg width="20" height="28" viewBox="0 0 20 28" fill="none" xmlns="http://www.w3.org/2000/svg">
<path d="M10 6.66663C10.8841 6.66663 11.7319 7.01782 12.357 7.64294C12.9821 8.26806 13.3333 9.1159 13.3333 9.99996C13.3333 10.4377 13.2471 10.8712 13.0796 11.2756C12.9121 11.68 12.6666 12.0475 12.357 12.357C12.0475 12.6665 11.68 12.912 11.2756 13.0796C10.8712 13.2471 10.4377 13.3333 10 13.3333C9.11595 13.3333 8.2681 12.9821 7.64298 12.357C7.01786 11.7319 6.66667 10.884 6.66667 9.99996C6.66667 9.1159 7.01786 8.26806 7.64298 7.64294C8.2681 7.01782 9.11595 6.66663 10 6.66663ZM10 0.666626C12.4754 0.666626 14.8493 1.64996 16.5997 3.4003C18.35 5.15064 19.3333 7.5246 19.3333 9.99996C19.3333 17 10 27.3333 10 27.3333C10 27.3333 0.666672 17 0.666672 9.99996C0.666672 7.5246 1.65 5.15064 3.40034 3.4003C5.15068 1.64996 7.52465 0.666626 10 0.666626ZM10 3.33329C8.23189 3.33329 6.5362 4.03567 5.28596 5.28591C4.03572 6.53616 3.33334 8.23185 3.33334 9.99996C3.33334 11.3333 3.33334 14 10 22.9466C16.6667 14 16.6667 11.3333 16.6667 9.99996C16.6667 8.23185 15.9643 6.53616 14.714 5.28591C13.4638 4.03567 11.7681 3.33329 10 3.33329Z" fill="#5D5D5D"/>
</svg>
