<svg xmlns="http://www.w3.org/2000/svg" width="32" height="33" viewBox="0 0 32 33" fill="none">
  <g clip-path="url(#clip0_97_2082)">
    <path d="M21.3333 4.5C21.687 4.5 22.0261 4.64048 22.2761 4.89052C22.5262 5.14057 22.6667 5.47971 22.6667 5.83333V7.16667H25.3333C26.0406 7.16667 26.7189 7.44762 27.219 7.94772C27.719 8.44781 28 9.12609 28 9.83333V25.8333C28 26.5406 27.719 27.2189 27.219 27.719C26.7189 28.219 26.0406 28.5 25.3333 28.5H6.66667C5.95942 28.5 5.28115 28.219 4.78105 27.719C4.28095 27.2189 4 26.5406 4 25.8333V9.83333C4 9.12609 4.28095 8.44781 4.78105 7.94772C5.28115 7.44762 5.95942 7.16667 6.66667 7.16667H9.33333V5.83333C9.33333 5.47971 9.47381 5.14057 9.72386 4.89052C9.97391 4.64048 10.313 4.5 10.6667 4.5C11.0203 4.5 11.3594 4.64048 11.6095 4.89052C11.8595 5.14057 12 5.47971 12 5.83333V7.16667H20V5.83333C20 5.47971 20.1405 5.14057 20.3905 4.89052C20.6406 4.64048 20.9797 4.5 21.3333 4.5ZM25.3333 9.83333H6.66667V25.8333H25.3333V9.83333ZM19.7653 13.0053C20.0168 12.7625 20.3536 12.6281 20.7032 12.6311C21.0528 12.6341 21.3872 12.7744 21.6344 13.0216C21.8816 13.2688 22.0219 13.6032 22.0249 13.9528C22.0279 14.3024 21.8935 14.6392 21.6507 14.8907L15.0613 21.4813C14.9363 21.6065 14.7878 21.7058 14.6243 21.7736C14.4608 21.8413 14.2856 21.8762 14.1087 21.8762C13.9317 21.8762 13.7565 21.8413 13.593 21.7736C13.4296 21.7058 13.2811 21.6065 13.156 21.4813L10.3373 18.66C10.0945 18.4085 9.96006 18.0717 9.9631 17.7221C9.96614 17.3725 10.1064 17.0381 10.3536 16.7909C10.6008 16.5437 10.9352 16.4035 11.2848 16.4004C11.6344 16.3974 11.9712 16.5318 12.2227 16.7747L14.1093 18.66L19.7653 13.0053Z" fill="white"/>
  </g>
  <defs>
    <clipPath id="clip0_97_2082">
      <rect width="32" height="32" fill="white" transform="translate(0 0.5)"/>
    </clipPath>
  </defs>
</svg>