<svg width="28" height="22" viewBox="0 0 28 22" fill="none" xmlns="http://www.w3.org/2000/svg">
<path d="M3.33334 21.6666C2.60001 21.6666 1.97201 21.4053 1.44934 20.8826C0.926674 20.36 0.665785 19.7324 0.666674 19V2.99998C0.666674 2.26665 0.928007 1.63865 1.45067 1.11598C1.97334 0.593315 2.6009 0.332426 3.33334 0.333315H24.6667C25.4 0.333315 26.028 0.594648 26.5507 1.11731C27.0733 1.63998 27.3342 2.26754 27.3333 2.99998V19C27.3333 19.7333 27.072 20.3613 26.5493 20.884C26.0267 21.4066 25.3991 21.6675 24.6667 21.6666H3.33334ZM3.33334 19H24.6667V5.66665H3.33334V19ZM12.6 17.0666L7.86667 12.3333L9.80001 10.4L12.6 13.2L18.2 7.59998L20.1333 9.53331L12.6 17.0666Z" fill="#5D5D5D"/>
</svg>
