<svg xmlns="http://www.w3.org/2000/svg" width="19" height="18" viewBox="0 0 19 18" fill="#FFF">
  <path d="M2.5 16H3.925L13.7 6.225L12.275 4.8L2.5 14.575V16ZM0.5 18V13.75L13.7 0.575C13.9 0.391667 14.121 0.25 14.363 0.15C14.605 0.0500001 14.859 0 15.125 0C15.3917 0 15.65 0.0500001 15.9 0.15C16.15 0.25 16.3667 0.4 16.55 0.6L17.925 2C18.125 2.18333 18.271 2.4 18.363 2.65C18.455 2.9 18.5007 3.15 18.5 3.4C18.5 3.66667 18.454 3.921 18.362 4.163C18.27 4.405 18.1243 4.62567 17.925 4.825L4.75 18H0.5ZM12.975 5.525L12.275 4.8L13.7 6.225L12.975 5.525Z" fill="white"/>
</svg>