<svg xmlns="http://www.w3.org/2000/svg" width="25" height="24" viewBox="0 0 25 24" fill="none">
  <g clip-path="url(#clip0_97_2215)">
    <mask id="mask0_97_2215" style="mask-type:luminance" maskUnits="userSpaceOnUse" x="0" y="0" width="25" height="24">
      <path d="M12.5 24C19.1274 24 24.5 18.6274 24.5 12C24.5 5.37258 19.1274 0 12.5 0C5.87258 0 0.5 5.37258 0.5 12C0.5 18.6274 5.87258 24 12.5 24Z" fill="white"/>
    </mask>
    <g mask="url(#mask0_97_2215)">
      <path d="M0.5 0L0.875 1.03125L0.5 2.10938V3.1875L2 5.71875L0.5 8.25V9.75L2 12L0.5 14.25V15.75L2 18.2812L0.5 20.8125V24L1.53125 23.625L2.60938 24H3.6875L6.21875 22.5L8.75 24H10.25L12.5 22.5L14.75 24H16.25L18.7812 22.5L21.3125 24H24.5L24.125 22.9688L24.5 21.8906V20.8125L23 18.2812L24.5 15.75V14.25L23 12L24.5 9.75V8.25L23 5.71875L24.5 3.1875V0L23.4688 0.375L22.3906 0H21.3125L18.7812 1.5L16.25 0H14.75L12.5 1.5L10.25 0H8.75L6.21875 1.5L3.6875 0H0.5Z" fill="#EEEEEE"/>
      <path d="M16.25 0V5.0625L21.3125 0H16.25ZM24.5 3.1875L19.4375 8.25H24.5V3.1875ZM0.5 8.25H5.5625L0.5 3.1875V8.25ZM3.6875 0L8.75 5.0625V0H3.6875ZM8.75 24V18.9375L3.6875 24H8.75ZM0.5 20.8125L5.5625 15.75H0.5V20.8125ZM24.5 15.75H19.4375L24.5 20.8125V15.75ZM21.3125 24L16.25 18.9375V24H21.3125Z" fill="#0052B4"/>
      <path d="M0.5 0V2.10938L6.64062 8.25H8.75L0.5 0ZM10.25 0V9.75H0.5V14.25H10.25V24H14.75V14.25H24.5V9.75H14.75V0H10.25ZM22.3906 0L16.25 6.14062V8.25L24.5 0H22.3906ZM8.75 15.75L0.5 24H2.60938L8.75 17.8594V15.75ZM16.25 15.75L24.5 24V21.8906L18.3594 15.75H16.25Z" fill="#D80027"/>
    </g>
  </g>
  <defs>
    <clipPath id="clip0_97_2215">
      <rect width="24" height="24" fill="white" transform="translate(0.5)"/>
    </clipPath>
  </defs>
</svg>