<svg width="30" height="22" viewBox="0 0 30 22" fill="none" xmlns="http://www.w3.org/2000/svg">
<path d="M14.9999 4.46666C13.7077 4.46666 12.4446 4.84983 11.3702 5.56773C10.2958 6.28562 9.4584 7.30599 8.96391 8.4998C8.46941 9.69361 8.34003 11.0072 8.59212 12.2746C8.84421 13.5419 9.46645 14.7061 10.3802 15.6198C11.2939 16.5335 12.458 17.1557 13.7253 17.4078C14.9927 17.6599 16.3063 17.5305 17.5001 17.036C18.6939 16.5415 19.7143 15.7041 20.4322 14.6297C21.1501 13.5553 21.5333 12.2922 21.5333 11C21.5333 9.26725 20.8449 7.60547 19.6197 6.38023C18.3944 5.15499 16.7327 4.46666 14.9999 4.46666ZM14.9999 15.1333C14.1824 15.1333 13.3833 14.8909 12.7036 14.4367C12.0238 13.9826 11.4941 13.337 11.1812 12.5818C10.8684 11.8265 10.7865 10.9954 10.946 10.1936C11.1055 9.39183 11.4992 8.65534 12.0772 8.07729C12.6553 7.49923 13.3918 7.10557 14.1935 6.94608C14.9953 6.7866 15.8264 6.86845 16.5817 7.18129C17.3369 7.49413 17.9825 8.02391 18.4367 8.70364C18.8908 9.38336 19.1333 10.1825 19.1333 11C19.1333 12.0962 18.6978 13.1476 17.9226 13.9227C17.1475 14.6979 16.0961 15.1333 14.9999 15.1333ZM29.2533 9.29333C28.7309 8.21813 28.0475 7.22896 27.2266 6.36C25.6806 4.71746 23.8797 3.33524 21.8933 2.26666C19.7887 1.06678 17.4215 0.40284 14.9999 0.333328C11.3164 0.526188 7.80029 1.93264 4.99992 4.33333C3.77249 5.29964 2.67457 6.41996 1.73325 7.66666C1.35362 8.19057 1.02332 8.74851 0.746585 9.33333C0.494767 9.85423 0.35401 10.4218 0.333252 11C0.348431 11.5918 0.489327 12.1735 0.746585 12.7067C1.26895 13.7819 1.95238 14.771 2.77325 15.64C4.3192 17.2825 6.12014 18.6647 8.10659 19.7333C10.2111 20.9332 12.5784 21.5971 14.9999 21.6667C18.6834 21.4738 22.1995 20.0674 24.9999 17.6667C26.2483 16.7171 27.3687 15.6102 28.3333 14.3733C28.7129 13.8494 29.0432 13.2915 29.3199 12.7067C29.5542 12.1685 29.6723 11.5869 29.6666 11C29.6514 10.4082 29.5105 9.82646 29.2533 9.29333ZM26.8133 11.6267C26.4048 12.437 25.8791 13.1828 25.2533 13.84C23.9302 15.2558 22.3911 16.4529 20.6933 17.3867C18.9566 18.3835 17.0013 18.9376 14.9999 19C11.9286 18.8145 9.00213 17.6298 6.66659 15.6267C5.62601 14.8059 4.69409 13.856 3.89325 12.8C3.62074 12.4324 3.3841 12.0395 3.18659 11.6267C3.0915 11.429 3.02849 11.2175 2.99992 11C3.02849 10.7825 3.0915 10.571 3.18659 10.3733C3.59507 9.56294 4.12071 8.81716 4.74659 8.15999C6.0696 6.74422 7.60871 5.54714 9.30659 4.61333C11.0432 3.61647 12.9985 3.0624 14.9999 2.99999C18.0713 3.18552 20.9977 4.37015 23.3333 6.37333C24.3738 7.19413 25.3057 8.14398 26.1066 9.19999C26.3791 9.56762 26.6157 9.96053 26.8133 10.3733C26.9083 10.571 26.9713 10.7825 26.9999 11C26.9713 11.2175 26.9083 11.429 26.8133 11.6267Z" fill="#5D5D5D"/>
</svg>
