<svg xmlns="http://www.w3.org/2000/svg" width="30" height="22" viewBox="0 0 30 22" fill="none">
<path d="M15 17.6667C16.7682 17.6667 18.4638 16.9643 19.7141 15.714C20.9643 14.4638 21.6667 12.7681 21.6667 11C21.6684 9.70967 21.288 8.44773 20.5734 7.37334L25.3467 2.61334C25.471 2.48902 25.5696 2.34143 25.6369 2.179C25.7042 2.01657 25.7388 1.84248 25.7388 1.66667C25.7388 1.49086 25.7042 1.31677 25.6369 1.15434C25.5696 0.991908 25.471 0.844321 25.3467 0.720003C25.2224 0.595685 25.0748 0.497071 24.9124 0.42979C24.7499 0.36251 24.5759 0.327881 24.4 0.327881C24.2242 0.327881 24.0501 0.36251 23.8877 0.42979C23.7253 0.497071 23.5777 0.595685 23.4534 0.720003L18.6267 5.49334C17.5523 4.77876 16.2904 4.39832 15 4.4C13.2435 4.41757 11.5649 5.1277 10.329 6.37604C9.09317 7.62438 8.39995 9.31005 8.40004 11.0667C8.39836 12.357 8.77879 13.6189 9.49337 14.6933L4.72004 19.3867C4.46897 19.6377 4.32792 19.9783 4.32792 20.3333C4.32792 20.6884 4.46897 21.0289 4.72004 21.28C4.97111 21.5311 5.31164 21.6721 5.66671 21.6721C6.02178 21.6721 6.3623 21.5311 6.61337 21.28L11.3734 16.5067C12.4403 17.2448 13.7028 17.6487 15 17.6667ZM19.0667 11C19.0832 11.6934 18.9192 12.3792 18.5906 12.9901C18.2621 13.6009 17.7804 14.1159 17.1927 14.4843C16.6051 14.8528 15.9317 15.0621 15.2387 15.0917C14.5458 15.1213 13.857 14.9703 13.24 14.6533L18.5734 9.32C18.8579 9.83754 19.0262 10.4108 19.0667 11ZM11 11C10.9835 10.3066 11.1476 9.6208 11.4761 9.00994C11.8046 8.39908 12.2864 7.88415 12.874 7.5157C13.4617 7.14724 14.135 6.93792 14.828 6.90829C15.521 6.87866 16.2097 7.02973 16.8267 7.34667L11.4934 12.68C11.2089 12.1625 11.0405 11.5892 11 11ZM3.40004 16.3333C2.57995 15.5339 1.8592 14.6386 1.25337 13.6667C0.703698 12.8811 0.384997 11.9574 0.333374 11C0.348553 10.4082 0.489449 9.82647 0.746707 9.29334C1.02344 8.70852 1.35374 8.15058 1.73337 7.62667C2.67734 6.39405 3.77514 5.28729 5.00004 4.33334C7.80041 1.93265 11.3165 0.526196 15 0.333337C16.007 0.336701 17.0099 0.46206 17.9867 0.70667C18.1624 0.74299 18.329 0.814408 18.4765 0.916644C18.624 1.01888 18.7493 1.14983 18.8449 1.30166C18.9406 1.45348 19.0046 1.62305 19.0332 1.8002C19.0617 1.97736 19.0542 2.15846 19.0111 2.33265C18.968 2.50684 18.8902 2.67054 18.7824 2.81394C18.6745 2.95733 18.5388 3.07749 18.3834 3.16719C18.2279 3.25689 18.056 3.3143 17.8779 3.33598C17.6998 3.35765 17.5191 3.34315 17.3467 3.29334C16.5785 3.10478 15.791 3.00634 15 3C12.9986 3.06241 11.0433 3.61648 9.30671 4.61334C7.60883 5.54715 6.06972 6.74423 4.74671 8.16C4.12084 8.81717 3.59519 9.56295 3.18671 10.3733C3.09162 10.571 3.02861 10.7825 3.00004 11C3.07717 11.4515 3.25489 11.8799 3.52004 12.2533C4.01729 13.03 4.60348 13.7459 5.26671 14.3867C5.52485 14.6342 5.67409 14.9741 5.68159 15.3317C5.68909 15.6893 5.55424 16.0352 5.30671 16.2933C5.05917 16.5515 4.71923 16.7007 4.36166 16.7082C4.00409 16.7157 3.65818 16.5809 3.40004 16.3333ZM29.6667 11C29.6515 11.5918 29.5106 12.1735 29.2534 12.7067C28.9979 13.289 28.69 13.8468 28.3334 14.3733C27.3688 15.6102 26.2484 16.7171 25 17.6667C22.1997 20.0674 18.6835 21.4738 15 21.6667C13.9931 21.6633 12.9902 21.5379 12.0134 21.2933C11.6822 21.1977 11.401 20.9775 11.2287 20.6789C11.0564 20.3804 11.0064 20.0268 11.0892 19.6922C11.172 19.3576 11.3811 19.068 11.6728 18.8843C11.9644 18.7006 12.3158 18.6369 12.6534 18.7067C13.4216 18.8952 14.2091 18.9937 15 19C17.0015 18.9376 18.9568 18.3835 20.6934 17.3867C22.3913 16.4529 23.9304 15.2558 25.2534 13.84C25.8792 13.1828 26.4049 12.4371 26.8134 11.6267C26.9085 11.429 26.9715 11.2175 27 11C26.9547 10.576 26.8084 10.1691 26.5734 9.81334C26.1467 9.09119 25.6166 8.43536 25 7.86667C24.7426 7.62577 24.5911 7.29275 24.5786 6.94043C24.5661 6.58812 24.6937 6.24519 24.9334 5.98667C25.1743 5.72928 25.5073 5.57776 25.8596 5.56527C26.2119 5.55278 26.5549 5.68032 26.8134 5.92C27.6293 6.67101 28.3301 7.53809 28.8934 8.49334C29.3508 9.25374 29.6162 10.1141 29.6667 11Z" fill="#5D5D5D"/>
</svg>