<svg xmlns="http://www.w3.org/2000/svg" width="80" height="72" viewBox="0 0 80 72" fill="none">
  <rect x="-0.5" y="-0.5" width="80" height="73" stroke="#DEDEDE"/>
  <path d="M18 23.1563V53.2121C18 56.0623 20.3311 58.3724 23.2073 58.3724H55.7927C58.6689 58.3724 61 56.0623 61 53.2121V23.1563C61 20.3062 58.6689 17.9961 55.7927 17.9961H23.2073C20.3311 18.0044 18 20.3145 18 23.1563Z" fill="#F2F7F9"/>
  <path d="M60.9916 27.6942V21.4454C60.9916 18.5952 58.6605 16.2852 55.7843 16.2852H23.2073C20.3311 16.2852 18 18.5952 18 21.4454V27.6942H60.9916Z" fill="#388697"/>
  <path d="M60.9916 28.8567V23.1563C60.9916 20.3062 58.6605 17.9961 55.7843 17.9961H23.2073C20.3311 18.0044 18 20.3145 18 23.1563V28.8567H60.9916Z" fill="#6CCED8"/>
  <path d="M48.1369 22.5747C48.1369 23.5718 48.9503 24.3778 49.9565 24.3778C50.9628 24.3778 51.7761 23.5718 51.7761 22.5747C51.7761 21.5775 50.9628 20.7715 49.9565 20.7715C48.9503 20.7715 48.1369 21.5775 48.1369 22.5747Z" fill="#388697"/>
  <path d="M48.9838 14.9639V22.4675C48.9838 22.9993 49.4199 23.4314 49.9565 23.4314C50.4932 23.4314 50.9292 22.9993 50.9292 22.4675V14.9639C50.9208 14.4321 50.4932 14 49.9565 14C49.4199 14 48.9838 14.4321 48.9838 14.9639Z" fill="#4D4D4D"/>
  <path d="M36.976 22.5747C36.976 23.5718 37.7894 24.3778 38.7956 24.3778C39.8019 24.3778 40.6152 23.5718 40.6152 22.5747C40.6152 21.5775 39.8019 20.7715 38.7956 20.7715C37.7894 20.7715 36.976 21.5775 36.976 22.5747Z" fill="#388697"/>
  <path d="M37.8146 14.9639V22.4675C37.8146 22.9993 38.2506 23.4314 38.7873 23.4314C39.3239 23.4314 39.76 22.9993 39.76 22.4675V14.9639C39.76 14.4321 39.3239 14 38.7873 14C38.2506 14 37.8146 14.4321 37.8146 14.9639Z" fill="#4D4D4D"/>
  <path d="M25.8067 22.5747C25.8067 23.5718 26.6201 24.3778 27.6263 24.3778C28.6326 24.3778 29.4459 23.5718 29.4459 22.5747C29.4459 21.5775 28.6326 20.7715 27.6263 20.7715C26.6201 20.7715 25.8067 21.5775 25.8067 22.5747Z" fill="#388697"/>
  <path d="M26.6537 14.9639V22.4675C26.6537 22.9993 27.0897 23.4314 27.6264 23.4314C28.163 23.4314 28.5991 22.9993 28.5991 22.4675V14.9639C28.5991 14.4321 28.163 14 27.6264 14C27.0897 14 26.6537 14.4321 26.6537 14.9639Z" fill="#4D4D4D"/>
  <path d="M51.2646 37.4571H46.0573V32.2969H51.2646V37.4571Z" fill="#E56353"/>
  <path d="M41.5376 37.4571H36.3303V32.2969H41.5376V37.4571Z" fill="#E56353"/>
  <path d="M31.819 37.4571H26.6118V32.2969H31.819V37.4571Z" fill="#E56353"/>
  <path d="M41.5376 45.5431H36.3303V40.3828H41.5376V45.5431Z" fill="#E56353"/>
  <path d="M31.819 45.5431H26.6118V40.3828H31.819V45.5431Z" fill="#E56353"/>
  <path d="M51.2646 53.6349H46.0573V48.4746H51.2646V53.6349Z" fill="#E56353"/>
  <path d="M41.5376 53.6349H36.3303V48.4746H41.5376V53.6349Z" fill="#E56353"/>
  <path d="M56.4915 37.2303L56.2366 36.9776C56.0303 36.7732 55.6958 36.7732 55.4895 36.9776L47.8881 44.5103C47.6818 44.7148 47.6818 45.0462 47.8881 45.2507L48.1431 45.5033C48.3494 45.7078 48.6838 45.7078 48.8901 45.5033L56.4915 37.9706C56.6978 37.7662 56.6979 37.4347 56.4915 37.2303Z" fill="#4D4D4D"/>
  <path d="M44.6452 40.8596L44.3962 41.1064C44.1932 41.3076 44.1932 41.6338 44.3962 41.835L48.0546 45.4603C48.2576 45.6615 48.5868 45.6615 48.7898 45.4603L49.0388 45.2136C49.2419 45.0124 49.2419 44.6862 49.0388 44.485L45.3805 40.8596C45.1774 40.6584 44.8482 40.6584 44.6452 40.8596Z" fill="#4D4D4D"/>
</svg>