<svg width="22" height="26" viewBox="0 0 22 26" fill="none" xmlns="http://www.w3.org/2000/svg">
<path d="M7 15.6667L15 7.66667M7.66667 8.33333H7.68001M14.3333 15H14.3467M20.3333 25V3.66667C20.3333 2.95942 20.0524 2.28115 19.5523 1.78105C19.0522 1.28095 18.3739 1 17.6667 1H4.33334C3.62609 1 2.94782 1.28095 2.44772 1.78105C1.94762 2.28115 1.66667 2.95942 1.66667 3.66667V25L6.33334 22.3333L11 25L15.6667 22.3333L20.3333 25ZM8.33334 8.33333C8.33334 8.51014 8.2631 8.67971 8.13808 8.80474C8.01305 8.92976 7.84348 9 7.66667 9C7.48986 9 7.32029 8.92976 7.19527 8.80474C7.07024 8.67971 7 8.51014 7 8.33333C7 8.15652 7.07024 7.98695 7.19527 7.86193C7.32029 7.7369 7.48986 7.66667 7.66667 7.66667C7.84348 7.66667 8.01305 7.7369 8.13808 7.86193C8.2631 7.98695 8.33334 8.15652 8.33334 8.33333ZM15 15C15 15.1768 14.9298 15.3464 14.8047 15.4714C14.6797 15.5964 14.5101 15.6667 14.3333 15.6667C14.1565 15.6667 13.987 15.5964 13.8619 15.4714C13.7369 15.3464 13.6667 15.1768 13.6667 15C13.6667 14.8232 13.7369 14.6536 13.8619 14.5286C13.987 14.4036 14.1565 14.3333 14.3333 14.3333C14.5101 14.3333 14.6797 14.4036 14.8047 14.5286C14.9298 14.6536 15 14.8232 15 15Z" stroke="#5D5D5D" stroke-width="2" stroke-linecap="round" stroke-linejoin="round"/>
</svg>
