<svg xmlns="http://www.w3.org/2000/svg" width="32" height="32" viewBox="0 0 32 32" fill="none">
<path d="M7.33333 23.9999C6.44928 23.9999 5.60143 24.3511 4.97631 24.9762C4.35119 25.6014 4 26.4492 4 27.3333M4 27.3333C4 28.2173 4.35119 29.0652 4.97631 29.6903C5.60143 30.3154 6.44928 30.6666 7.33333 30.6666H29.3333M4 27.3333V4.66659C4 3.78253 4.35119 2.93468 4.97631 2.30956C5.60143 1.68444 6.44928 1.33325 7.33333 1.33325H28V24.0093H7.32267M27.3333 23.9999C26.4493 23.9999 25.6014 24.3511 24.9763 24.9762C24.3512 25.6014 24 26.4492 24 27.3333C24 28.2173 24.3512 29.0652 24.9763 29.6903C25.6014 30.3154 26.4493 30.6666 27.3333 30.6666" stroke="#323232" stroke-width="2"/>
</svg>
