<svg xmlns="http://www.w3.org/2000/svg" width="32" height="33" viewBox="0 0 32 33" fill="none">
  <path d="M22.6666 24.5007C22.6666 23.7934 22.3857 23.1151 21.8856 22.615C21.3855 22.1149 20.7072 21.834 20 21.834H12C11.2927 21.834 10.6145 22.1149 10.1144 22.615C9.61426 23.1151 9.33331 23.7934 9.33331 24.5007" stroke="white" stroke-width="2" stroke-linecap="round" stroke-linejoin="round"/>
  <path d="M25.3333 5.83398H6.66667C5.19391 5.83398 4 7.02789 4 8.50065V27.1673C4 28.6401 5.19391 29.834 6.66667 29.834H25.3333C26.8061 29.834 28 28.6401 28 27.1673V8.50065C28 7.02789 26.8061 5.83398 25.3333 5.83398Z" stroke="white" stroke-width="2" stroke-linecap="round" stroke-linejoin="round"/>
  <path d="M16 16.5003C17.4727 16.5003 18.6666 15.3064 18.6666 13.8337C18.6666 12.3609 17.4727 11.167 16 11.167C14.5272 11.167 13.3333 12.3609 13.3333 13.8337C13.3333 15.3064 14.5272 16.5003 16 16.5003Z" stroke="white" stroke-width="2" stroke-linecap="round" stroke-linejoin="round"/>
  <path d="M10.6667 3.16699V5.83366M21.3334 3.16699V5.83366" stroke="white" stroke-width="2" stroke-linecap="round" stroke-linejoin="round"/>
</svg>