<svg width="16" height="16" viewBox="0 0 16 16" fill="none" xmlns="http://www.w3.org/2000/svg">
<path fill-rule="evenodd" clip-rule="evenodd" d="M4.80023 1.06641C4.94168 1.06641 5.07733 1.1226 5.17735 1.22262C5.27737 1.32264 5.33356 1.45829 5.33356 1.59974V2.13307H10.6669V1.59974C10.6669 1.45829 10.7231 1.32264 10.8231 1.22262C10.9231 1.1226 11.0588 1.06641 11.2002 1.06641C11.3417 1.06641 11.4773 1.1226 11.5774 1.22262C11.6774 1.32264 11.7336 1.45829 11.7336 1.59974V2.13307H13.3336C13.7579 2.13307 14.1649 2.30164 14.4649 2.6017C14.765 2.90176 14.9336 3.30873 14.9336 3.73307V13.3331C14.9336 13.7574 14.765 14.1644 14.4649 14.4644C14.1649 14.7645 13.7579 14.9331 13.3336 14.9331H2.66689C2.24255 14.9331 1.83558 14.7645 1.53552 14.4644C1.23547 14.1644 1.06689 13.7574 1.06689 13.3331V3.73307C1.06689 3.30873 1.23547 2.90176 1.53552 2.6017C1.83558 2.30164 2.24255 2.13307 2.66689 2.13307H4.26689V1.59974C4.26689 1.45829 4.32309 1.32264 4.4231 1.22262C4.52312 1.1226 4.65878 1.06641 4.80023 1.06641ZM10.6669 3.19974V3.73307C10.6669 3.87452 10.7231 4.01018 10.8231 4.1102C10.9231 4.21022 11.0588 4.26641 11.2002 4.26641C11.3417 4.26641 11.4773 4.21022 11.5774 4.1102C11.6774 4.01018 11.7336 3.87452 11.7336 3.73307V3.19974H13.3336C13.475 3.19974 13.6107 3.25593 13.7107 3.35595C13.8107 3.45597 13.8669 3.59162 13.8669 3.73307V5.33307H2.13356V3.73307C2.13356 3.59162 2.18975 3.45597 2.28977 3.35595C2.38979 3.25593 2.52545 3.19974 2.66689 3.19974H4.26689V3.73307C4.26689 3.87452 4.32309 4.01018 4.4231 4.1102C4.52312 4.21022 4.65878 4.26641 4.80023 4.26641C4.94168 4.26641 5.07733 4.21022 5.17735 4.1102C5.27737 4.01018 5.33356 3.87452 5.33356 3.73307V3.19974H10.6669ZM2.13356 6.39974V13.3331C2.13356 13.4745 2.18975 13.6102 2.28977 13.7102C2.38979 13.8102 2.52545 13.8664 2.66689 13.8664H13.3336C13.475 13.8664 13.6107 13.8102 13.7107 13.7102C13.8107 13.6102 13.8669 13.4745 13.8669 13.3331V6.39974H2.13356ZM7.4669 7.99974C7.4669 7.85829 7.52309 7.72264 7.6231 7.62262C7.72312 7.5226 7.85878 7.46641 8.00023 7.46641C8.14168 7.46641 8.27733 7.5226 8.37735 7.62262C8.47737 7.72264 8.53356 7.85829 8.53356 7.99974C8.53356 8.14119 8.47737 8.27684 8.37735 8.37686C8.27733 8.47688 8.14168 8.53307 8.00023 8.53307C7.85878 8.53307 7.72312 8.47688 7.6231 8.37686C7.52309 8.27684 7.4669 8.14119 7.4669 7.99974ZM10.1336 7.46641C9.99211 7.46641 9.85646 7.5226 9.75644 7.62262C9.65642 7.72264 9.60023 7.85829 9.60023 7.99974C9.60023 8.14119 9.65642 8.27684 9.75644 8.37686C9.85646 8.47688 9.99211 8.53307 10.1336 8.53307C10.275 8.53307 10.4107 8.47688 10.5107 8.37686C10.6107 8.27684 10.6669 8.14119 10.6669 7.99974C10.6669 7.85829 10.6107 7.72264 10.5107 7.62262C10.4107 7.5226 10.275 7.46641 10.1336 7.46641ZM11.7336 7.99974C11.7336 7.85829 11.7898 7.72264 11.8898 7.62262C11.9898 7.5226 12.1254 7.46641 12.2669 7.46641C12.4083 7.46641 12.544 7.5226 12.644 7.62262C12.744 7.72264 12.8002 7.85829 12.8002 7.99974C12.8002 8.14119 12.744 8.27684 12.644 8.37686C12.544 8.47688 12.4083 8.53307 12.2669 8.53307C12.1254 8.53307 11.9898 8.47688 11.8898 8.37686C11.7898 8.27684 11.7336 8.14119 11.7336 7.99974ZM12.2669 9.59974C12.1254 9.59974 11.9898 9.65593 11.8898 9.75595C11.7898 9.85597 11.7336 9.99162 11.7336 10.1331C11.7336 10.2745 11.7898 10.4102 11.8898 10.5102C11.9898 10.6102 12.1254 10.6664 12.2669 10.6664C12.4083 10.6664 12.544 10.6102 12.644 10.5102C12.744 10.4102 12.8002 10.2745 12.8002 10.1331C12.8002 9.99162 12.744 9.85597 12.644 9.75595C12.544 9.65593 12.4083 9.59974 12.2669 9.59974ZM9.60023 10.1331C9.60023 9.99162 9.65642 9.85597 9.75644 9.75595C9.85646 9.65593 9.99211 9.59974 10.1336 9.59974C10.275 9.59974 10.4107 9.65593 10.5107 9.75595C10.6107 9.85597 10.6669 9.99162 10.6669 10.1331C10.6669 10.2745 10.6107 10.4102 10.5107 10.5102C10.4107 10.6102 10.275 10.6664 10.1336 10.6664C9.99211 10.6664 9.85646 10.6102 9.75644 10.5102C9.65642 10.4102 9.60023 10.2745 9.60023 10.1331ZM8.00023 9.59974C7.85878 9.59974 7.72312 9.65593 7.6231 9.75595C7.52309 9.85597 7.4669 9.99162 7.4669 10.1331C7.4669 10.2745 7.52309 10.4102 7.6231 10.5102C7.72312 10.6102 7.85878 10.6664 8.00023 10.6664C8.14168 10.6664 8.27733 10.6102 8.37735 10.5102C8.47737 10.4102 8.53356 10.2745 8.53356 10.1331C8.53356 9.99162 8.47737 9.85597 8.37735 9.75595C8.27733 9.65593 8.14168 9.59974 8.00023 9.59974ZM5.33356 10.1331C5.33356 9.99162 5.38975 9.85597 5.48977 9.75595C5.58979 9.65593 5.72545 9.59974 5.86689 9.59974C6.00834 9.59974 6.144 9.65593 6.24402 9.75595C6.34404 9.85597 6.40023 9.99162 6.40023 10.1331C6.40023 10.2745 6.34404 10.4102 6.24402 10.5102C6.144 10.6102 6.00834 10.6664 5.86689 10.6664C5.72545 10.6664 5.58979 10.6102 5.48977 10.5102C5.38975 10.4102 5.33356 10.2745 5.33356 10.1331ZM3.73356 9.59974C3.59211 9.59974 3.45646 9.65593 3.35644 9.75595C3.25642 9.85597 3.20023 9.99162 3.20023 10.1331C3.20023 10.2745 3.25642 10.4102 3.35644 10.5102C3.45646 10.6102 3.59211 10.6664 3.73356 10.6664C3.87501 10.6664 4.01067 10.6102 4.11068 10.5102C4.2107 10.4102 4.26689 10.2745 4.26689 10.1331C4.26689 9.99162 4.2107 9.85597 4.11068 9.75595C4.01067 9.65593 3.87501 9.59974 3.73356 9.59974ZM3.20023 12.2664C3.20023 12.125 3.25642 11.9893 3.35644 11.8893C3.45646 11.7893 3.59211 11.7331 3.73356 11.7331C3.87501 11.7331 4.01067 11.7893 4.11068 11.8893C4.2107 11.9893 4.26689 12.125 4.26689 12.2664C4.26689 12.4079 4.2107 12.5435 4.11068 12.6435C4.01067 12.7436 3.87501 12.7997 3.73356 12.7997C3.59211 12.7997 3.45646 12.7436 3.35644 12.6435C3.25642 12.5435 3.20023 12.4079 3.20023 12.2664ZM5.86689 11.7331C5.72545 11.7331 5.58979 11.7893 5.48977 11.8893C5.38975 11.9893 5.33356 12.125 5.33356 12.2664C5.33356 12.4079 5.38975 12.5435 5.48977 12.6435C5.58979 12.7436 5.72545 12.7997 5.86689 12.7997C6.00834 12.7997 6.144 12.7436 6.24402 12.6435C6.34404 12.5435 6.40023 12.4079 6.40023 12.2664C6.40023 12.125 6.34404 11.9893 6.24402 11.8893C6.144 11.7893 6.00834 11.7331 5.86689 11.7331ZM7.4669 12.2664C7.4669 12.125 7.52309 11.9893 7.6231 11.8893C7.72312 11.7893 7.85878 11.7331 8.00023 11.7331C8.14168 11.7331 8.27733 11.7893 8.37735 11.8893C8.47737 11.9893 8.53356 12.125 8.53356 12.2664C8.53356 12.4079 8.47737 12.5435 8.37735 12.6435C8.27733 12.7436 8.14168 12.7997 8.00023 12.7997C7.85878 12.7997 7.72312 12.7436 7.6231 12.6435C7.52309 12.5435 7.4669 12.4079 7.4669 12.2664ZM10.1336 11.7331C9.99211 11.7331 9.85646 11.7893 9.75644 11.8893C9.65642 11.9893 9.60023 12.125 9.60023 12.2664C9.60023 12.4079 9.65642 12.5435 9.75644 12.6435C9.85646 12.7436 9.99211 12.7997 10.1336 12.7997C10.275 12.7997 10.4107 12.7436 10.5107 12.6435C10.6107 12.5435 10.6669 12.4079 10.6669 12.2664C10.6669 12.125 10.6107 11.9893 10.5107 11.8893C10.4107 11.7893 10.275 11.7331 10.1336 11.7331Z" fill="#323232"/>
</svg>
